<?xml version="1.0" standalone="no"?><!DOCTYPE svg PUBLIC "-//W3C//DTD SVG 1.1//EN" "http://www.w3.org/Graphics/SVG/1.1/DTD/svg11.dtd"><svg t="1709780778325" class="icon" viewBox="0 0 1024 1024" version="1.1" xmlns="http://www.w3.org/2000/svg" p-id="5785" xmlns:xlink="http://www.w3.org/1999/xlink" width="200" height="200"><path d="M388.835452 291.145015c-0.002921-0.683477-0.083244-1.610844-0.27748-2.752892-0.759419-4.503936-3.008466-10.935627-6.684344-19.10814l-0.753577-1.657577c-6.246218-13.580449-14.10766-27.915935-29.925473-55.116263l-15.717043-26.953517c-9.403646-16.200443-14.484449-25.25797-19.451339-34.7434l-2.010999-3.878876-0.94051-1.843051c-8.942154-17.624353-13.501586-29.888962-13.501586-38.571161 0-38.210437 33.093125-71.299181 68.901171-71.299181 8.558063 0 17.124889 3.145745 26.505168 9.009333l0.806152 0.508226c6.192182 3.954818 11.426329 8.010405 20.840198 15.928805l5.992105 5.061817 2.682792 2.244666c18.540036 15.422039 27.403327 20.686854 36.075303 20.597768 3.836524-0.039431 8.579969-3.845287 14.90651-12.714419l0.782785-1.11138 0.350501-0.511147c3.519613-5.203478 14.190904-22.595623 15.975538-25.545673l1.495471-2.386327c8.514251-13.336558 15.852863-22.715378 24.457659-30.280355C531.170938 5.621158 544.367296 0 559.470963 0c15.11535 0 28.389111 5.610935 40.333888 15.987221 8.709947 7.564977 16.198982 16.993451 24.77019 30.233622l1.715993 2.678411 1.621067 2.574721c0.557881 0.890856 1.137667 1.825525 1.759806 2.833215l4.58572 7.471511 2.770418 4.473267 0.915683 1.456039c2.530908 4.003012 4.55213 7.01878 6.513475 9.682587l0.378249 0.511147 0.744814 0.982863c5.155284 6.700408 9.089656 9.619789 12.096662 9.688428 8.127239 0.188394 15.693677-5.459051 32.027017-22.697852l4.531685-4.791639L696.012961 59.225886c5.895717-6.135226 9.584739-9.631472 13.856468-13.019647l1.066107-0.8339c8.514251-6.574812 16.756863-10.151382 25.541291-10.151382 33.835018 0 61.454487 32.468065 61.454488 71.29772 0 8.213404-3.693403 19.703991-11.007188 36.386373l-0.811994 1.840129-1.092395 2.441823c-2.855122 6.326541-6.202405 13.387673-10.383588 21.955959l-2.243206 4.576958-12.794742 25.881569-3.585332 7.315245-2.288479 4.717158c-11.161993 23.116993-18.144262 39.266321-22.432056 52.653994l-0.408918 1.289552-0.499463 1.644433c-2.336673 7.836615-3.426146 14.066769-3.256738 18.474317 0.128517 3.401319 0.756498 4.630993 1.682405 5.07204 50.223855 23.936289 96.663761 58.037104 136.539077 99.669306C945.693722 474.326997 993.938708 582.98519 993.938708 682.940739c0 197.270657-189.195993 341.057801-434.467745 341.057801-245.273213 0-434.467745-143.787144-434.467746-341.057801 0-99.955548 48.243525-208.613742 128.59001-292.503206 39.044337-40.764713 84.380166-74.306186 133.399174-98.156311l1.84013-0.890856 0.002921-0.245351zM559.470963 17.525044c-19.112521 0-33.030327 11.902426-50.022317 38.537572l-0.959496 1.524678c-0.674714 1.153732-12.883828 21.081167-16.777309 26.78849l-0.734592 1.055884-0.949273 1.328983c-9.148073 12.641398-17.619971 19.223513-28.470894 19.335965-8.952377 0.090546-17.910595-3.285946-27.799101-9.640235l-1.273487-0.828058c-5.736531-3.775187-10.745773-7.718321-20.055952-15.563699l-5.221003-4.414851-2.707619-2.269493c-17.836113-14.855396-26.902403-20.371403-35.40497-20.625517l-0.620678-0.008762c-26.12984 0-51.377587 25.243365-51.377588 53.772676 0 5.10855 4.138831 16.020811 12.141935 31.696963l0.828058 1.610844 2.208156 4.232298c4.812085 9.123246 9.987815 18.299067 19.515597 34.690824l14.138329 24.237136c16.031034 27.549369 24.131985 42.268946 30.664445 56.343016l0.885015 1.927755c4.460124 9.808183 7.272893 17.773315 8.360907 24.213769 1.628369 9.634393-0.427903 17.430117-8.166671 21.117678-48.266892 23.00162-92.984962 55.839171-131.423225 95.971522C188.889305 483.333409 142.528261 587.746161 142.528261 682.940739c0 92.174429 43.520526 173.693631 121.225111 232.747187 76.514342 58.151017 181.547772 90.785569 295.717591 90.78557S778.672752 973.837483 855.188554 915.689387C932.891678 856.63437 976.413664 775.115168 976.413664 682.940739c0-95.194578-46.359583-199.607329-123.722429-280.380257-38.438263-40.132351-83.156333-72.968441-131.423225-95.971522-7.588344-3.616001-11.299272-10.887434-11.655615-20.226821-0.270178-7.068434 1.314378-15.648404 4.538987-25.995482l0.436665-1.384479c5.042831-15.762317 13.262077-34.389978 26.82208-62.102914l2.950049-6.009629 11.887822-24.035598 0.744814-1.511535 3.456815-7.083039 1.635671-3.388175a658.458253 658.458253 0 0 0 7.307943-15.649864l1.063186-2.389248 0.706843-1.612304c6.132305-14.081373 9.24154-23.775643 9.24154-28.679734 0-29.723935-20.457568-53.774137-43.929443-53.774137-7.953449 0-15.372384 5.514547-31.109874 22.072793l-4.629532 4.895329c-7.930082 8.347763-12.082057 12.320106-17.447642 16.428268l-0.665952 0.503845c-8.425165 6.303174-16.628346 9.648997-25.349976 9.447459-9.986354-0.230746-17.990918-6.338224-26.459895-17.681309l-0.826598-1.120142c-2.371723-3.255277-4.758049-6.862515-7.775278-11.681902l-1.402004-2.253429-7.039225-11.442393-1.501313-2.400931-0.480478-0.759419-1.165415-1.831367-1.061726-1.641512C592.64149 29.317938 578.488556 17.525044 559.470963 17.525044z" fill="#91000A" p-id="5786"></path><path d="M559.456359 1015.236018c235.110148 0 425.705223-136.087808 425.705223-332.295279 0-98.727335-48.255208-205.107272-126.15695-286.442462-38.248408-39.933733-83.641193-73.830089-133.978961-97.818953-32.538165-15.506743 64.127057-157.585195 64.127057-192.159186 0-34.573991-24.291171-62.536659-52.691965-62.536659s-50.511558 54.006344-78.999978 53.349155C628.972366 96.676905 614.387148 8.762522 559.456359 8.762522c-54.929329 0-68.1695 88.264884-98.004427 88.571572-29.833466 0.306688-63.052187-53.350615-92.992265-53.350615-29.764827 0-60.138649 27.962668-60.138648 62.535198 0 34.575451 110.607854 180.227552 85.567487 192.160647-50.337768 23.988864-95.732013 57.88522-133.980421 97.818953C182.006344 477.834927 133.751135 584.213404 133.751135 682.940739c0 196.207471 190.595076 332.295279 425.705224 332.295279z" fill="#D8000F" p-id="5787"></path><path d="M368.474272 43.983479c5.549597 0 11.214568 1.844511 16.948177 4.847135-19.782854-1.409306-34.134404 14.472765-34.134404 39.60952 0 34.573991 116.656915 175.336604 91.616548 187.269699-50.337768 23.988864-95.732013 57.88522-133.980421 97.818953-77.901741 81.335189-126.15695 187.715127-126.156949 286.441002 0 196.207471 190.595076 332.295279 425.705223 332.295278 72.86037 0 141.44609-13.069302 201.406567-36.947174-70.265203 38.349177-156.809712 59.918125-250.40805 59.918126-235.110148 0-425.705223-136.087808-425.705224-332.295279 0-98.727335 48.255208-205.107272 126.15695-286.442462 38.248408-39.933733 83.641193-73.830089 133.978961-97.818953 25.040367-11.933094-85.566027-157.585195-85.566027-192.159186 0-34.573991 30.373822-62.536659 60.138649-62.536659z m238.755356-7.213016c20.11583 25.796865 32.476827 60.153253 50.245762 60.563631 28.486959 0.657189 50.599183-53.350615 78.999977-53.350615 9.835931 0 19.17824 3.353125 27.190105 9.17436-3.938754-0.670333-8.276202-0.988705-13.019647-0.988704-30.267211 0-68.068731 119.576296-104.51498 119.576295-27.334687 0-20.426899-89.240445-38.438263-133.860666zM559.470963 8.762522c7.383885 0 14.03756 1.588937 20.095383 4.340369a9.413869 9.413869 0 0 0-0.38263-0.007302c-54.93079 0-74.170367 141.492823-99.102663 138.024325-17.882847-2.487096-30.414714-38.251329-47.545444-66.15412 9.840312 7.229081 19.553568 12.464687 28.930927 12.3683C491.301463 97.027406 504.540173 8.762522 559.470963 8.762522z" fill="#C40714" p-id="5788"></path><path d="M833.605002 528.672158c25.980878 0 47.04452 21.063642 47.04452 47.045981 0 25.980878-21.062182 47.04452-47.04452 47.04452S786.559022 601.700477 786.559022 575.718139 807.622664 528.672158 833.605002 528.672158z m0 17.525044C817.300869 546.197202 804.084065 559.414006 804.084065 575.718139c0 16.302672 13.216804 29.519476 29.520937 29.519476 16.302672 0 29.519476-13.216804 29.519476-29.519476 0-16.304133-13.216804-29.520936-29.519476-29.520937z" fill="#91000A" p-id="5789"></path><path d="M373.600347 297.787007l-2.931064-3.256738 19.537503-17.586381 2.931064 3.256737c48.614472 54.006344 102.265933 75.697967 162.284828 65.897086l2.773338-0.467334c29.500491-4.83107 57.67638 3.691943 86.359035 25.386486l1.559729 1.193164 1.350889 1.051502c17.30306 13.552701 33.303425 30.08758 56.784063 58.419734l2.643361 3.201242 4.541907 5.545216 4.512699 5.564201 14.477146 17.977774c16.098213 19.949342 25.387947 30.971134 35.063232 41.528513l1.990553 2.159961 2.062113 2.211077c15.144559 16.127422 28.779043 28.057595 42.083473 36.752938l3.667115 2.39801L800.909112 571.024348l-3.665655-2.39655c-15.18399-9.923556-30.325628-23.147662-46.894097-40.795381l-2.262191-2.424298-2.443283-2.655044c-8.105333-8.864751-15.966775-18.071241-26.965201-31.537777l-2.365881-2.900395-5.552518-6.855213-11.575292-14.377838-5.45467-6.755904-4.264427-5.238528c-26.448212-32.342469-42.578555-49.176734-59.96778-62.494307l-0.832439-0.633822c-23.016224-17.403829-44.182096-23.966958-66.164343-20.396231l-2.877028 0.48486c-69.102709 11.281747-131.550282-13.745476-186.02396-74.262374z m9.466444-2.625836c51.83762 56.037788 110.369806 78.813043 175.123383 68.241061l2.885791-0.48486c24.533601-4.000091 48.05367 3.285946 72.885197 22.06111l0.852885 0.648426c18.230427 13.961618 34.91719 31.426785 62.254798 64.915684l3.47434 4.271729 5.461972 6.767588 11.57091 14.371996 5.540835 6.837688 4.594482 5.62554c10.788125 13.146704 18.496223 22.069872 26.803095 31.033932l2.246126 2.409693c14.773612 15.731648 28.292723 27.772813 41.639505 36.988066l4.794559-7.337152c-12.775757-8.848687-25.807088-20.486776-40.052027-35.654702l-2.08548-2.237364-2.024143-2.195012-1.930675-2.117609c-8.683659-9.583278-17.402369-19.937658-31.194579-36.983684l-16.774388-20.822673-4.492252-5.536454-4.520001-5.521849-3.456815-4.179723c-22.673026-27.292335-38.106748-43.190471-54.654771-56.14586l-1.866417-1.445816c-27.195947-20.827054-53.284896-28.854985-80.511512-24.396321l-2.786482 0.468795c-61.882391 10.117792-117.487894-11.671679-167.264861-65.445817l-6.513475 5.863588z" fill="#91000A" p-id="5790"></path><path d="M376.857084 294.855943c53.451384 59.380691 114.419551 83.90991 182.060379 72.867672l2.051891-0.346119c23.872031-4.143212 46.480798 3.047897 70.338224 21.088469l0.842663 0.639664c19.309678 14.788216 36.872692 33.780983 64.982863 68.461585l5.460511 6.761746 11.578213 14.38514 5.546676 6.842069c13.622801 16.74664 22.58394 27.222235 32.72802 38.105287 16.406362 17.602446 31.675056 31.156607 47.192022 41.299227l9.58912-14.669922c-13.853547-9.054606-27.780115-21.341122-42.880862-37.423271l-2.073797-2.2213-1.066107-1.153732c-10.455149-11.347466-20.145038-22.884787-36.190676-42.769869l-14.480067-17.982156-4.503936-5.552518-4.528764-5.529151c-24.869498-30.216097-41.747575-47.954362-60.696529-62.466559-27.467586-21.034434-54.759921-30.010177-83.904069-25.238984l-0.930288 0.157725c-62.212446 10.796887-117.952308-11.281747-168.089998-66.980718l-13.026949 11.725715z" fill="#FFE400" p-id="5791"></path><path d="M723.331584 278.052347l-0.004381-5.378728 5.799329 1.415147 0.360724 0.096388c0.435205 0.121215 0.83536 0.246811 1.244278 0.391393l0.467334 0.172329c0.160646 0.059877 0.330055 0.127057 0.51991 0.202999l2.444743 1.001848c2.206695 0.943432 4.040983 2.000776 5.640144 3.303471 3.702166 3.011387 5.848983 7.068434 5.848983 11.835246 0 4.582799-2.009538 8.54638-5.483878 11.528558-1.691167 1.451658-3.653972 2.60685-6.054903 3.630605-3.199781 1.362572-7.337152 2.538211-12.670607 3.636447l-1.42537 0.286242c-9.209411 1.803619-21.862492 3.410081-37.502133 4.772654l-1.45896 0.125596c-29.493189 2.513383-67.670036 4.036602-108.555964 4.328686l-6.256441 0.03505-4.147594 0.014604-6.240376 0.00146-4.260046-0.008762c-43.228442-0.134359-83.950802-1.638592-115.244689-4.242521l-3.001163-0.255574-2.484175-0.219063-3.770806-0.353422c-12.768455-1.232595-23.273258-2.64044-31.23547-4.198708l-1.42537-0.286242c-5.331995-1.098236-9.469365-2.273874-12.670607-3.636447-2.399471-1.022294-4.362276-2.178947-6.054902-3.630605-3.47434-2.982178-5.483878-6.945759-5.483879-11.528558 0-4.502476 1.948201-8.420784 5.321772-11.388358 1.657577-1.45896 3.585332-2.621454 5.93953-3.65105l1.109919-0.479018c0.787167-0.330055 1.266184-0.506766 1.707231-0.636744l0.281862-0.077402 3.960659-1.283709 2.821533 7.673048 8.641307 2.947128c7.579581 1.543664 18.569244 2.996783 32.24462 4.258586l3.379413 0.302307 2.866805 0.245351 3.037674 0.246811c31.713027 2.516304 72.971362 3.916847 116.396961 3.916847l4.108162-0.004381 4.257125-0.013144c38.958173-0.160646 75.756384-1.451658 104.951647-3.659813l3.154507-0.245351 2.964654-0.240969 3.992789-0.343199 3.494786-0.319832c12.220797-1.150811 22.224677-2.456427 29.480044-3.840906l1.258883-0.246811 2.881409-0.787166c1.231134-0.341738 2.301622-0.648427 3.208544-0.920065l1.07779-0.327134c0.048194-0.563722 0.113913-1.139128 0.195696-1.743742l0.087625-0.613377 0.283322-1.808z m8.103872 6.278347l0.004382 0.296465 0.023366 0.611916c-0.002921 1.299774-0.52137 2.272414-1.245738 3.033293a4.819387 4.819387 0 0 1-0.97264 0.788627 7.566438 7.566438 0 0 1-1.112841 0.560802c-0.411839 0.17233-0.920065 0.359263-1.533441 0.565182l-0.791548 0.258495-1.117221 0.34758c-1.207768 0.365105-2.687173 0.790087-4.44552 1.274947l-2.507541 0.682016-0.267257 0.064259-1.349429 0.265796c-8.506948 1.63129-20.445885 3.12822-35.130411 4.409009l-2.891632 0.245351-2.98948 0.24389-3.179335 0.246811c-29.42893 2.225681-66.434521 3.523994-105.592771 3.686101l-4.280492 0.014604-6.227233 0.00146-4.279031-0.008762c-41.297766-0.131438-80.311435-1.521758-110.721767-3.935833l-3.063962-0.248271-2.88287-0.246811-2.402391-0.213222c-13.865231-1.255961-25.145517-2.713461-33.221642-4.292175l-1.553887-0.31399-13.117495-4.474728-1.219451-3.315154a11.405883 11.405883 0 0 0-2.031445 1.404924c-1.56265 1.374256-2.346895 2.951509-2.346896 4.809164 0 1.894165 0.809073 3.488944 2.428679 4.879264 0.949273 0.814915 2.15412 1.524679 3.782489 2.218379 2.307464 0.981402 5.444447 1.907309 9.508797 2.798165l1.475024 0.313991 1.380098 0.277479c7.880428 1.540743 18.542957 2.95443 31.609337 4.188486l2.476873 0.229286 2.469571 0.219063 2.974876 0.254113c30.547612 2.541131 70.260822 4.03076 112.513703 4.20309l6.250599 0.016064 6.22139-0.00292 4.13299-0.013144 6.224311-0.03359c40.671246-0.292084 78.62757-1.80654 107.872487-4.298017l3.789791-0.332976c15.052552-1.362572 27.089337-2.95297 35.575839-4.702553l0.750656-0.157726c4.438217-0.941971 7.813249-1.918992 10.255072-2.958811 1.628369-0.6937 2.831755-1.402004 3.782489-2.218379 1.619606-1.39032 2.427219-2.985099 2.427218-4.879264 0-1.98033-0.863108-3.611619-2.617073-5.03845-0.762339-0.620679-1.682404-1.18294-2.837597-1.723296z" fill="#91000A" p-id="5792"></path><path d="M680.618671 293.123885l-2.877028 0.24389-2.979258 0.24243c-30.604568 2.4316-70.326541 3.846747-112.71086 3.932912l-4.112543 0.004381c-45.316843 0-87.850124-1.518837-119.802661-4.179723l-2.875568-0.24389c-15.603131-1.361112-28.025466-2.964653-36.403897-4.69087l-10.880131-3.712389-2.088402-5.678114c-0.398695 0.129977-0.308149 0-2.644821 1.023755-1.872259 0.819296-3.458275 1.743742-4.803322 2.926682-2.298702 2.022682-3.833603 4.727381-3.833604 8.099491 0 3.43929 1.590398 6.171736 3.95774 8.204641 1.372795 1.18002 2.993862 2.103005 4.917235 2.923762 2.941287 1.253041 6.861055 2.351277 11.838167 3.376492l1.402003 0.281861c8.579969 1.679483 20.258951 3.186637 34.538941 4.48349l2.478334 0.219063c32.319102 2.818611 75.734477 4.442599 122.120347 4.489332l6.234535-0.00292 4.13737-0.013144c43.351117-0.17525 83.755106-1.732059 114.453141-4.347672l1.45604-0.125596c16.220889-1.413687 29.2566-3.096091 38.419277-4.984414 4.977112-1.025215 8.89542-2.123451 11.836707-3.376492 1.926294-0.820756 3.54444-1.743742 4.918696-2.923762 2.367341-2.032905 3.957739-4.765352 3.957739-8.204641 0-3.592634-1.713073-6.384958-4.235219-8.436848-1.441435-1.172718-3.145745-2.095703-5.187413-2.91938-2.024143-0.817835-2.587865-1.108459-4.141752-1.486708 0 0.670333-0.809073 4.038062-0.627981 6.929694 0.020446 0.343199-3.47288 1.456039-10.479976 3.339981-8.371129 1.694088-20.63866 3.26696-35.981836 4.604706z" fill="#FFE400" p-id="5793"></path><path d="M567.767611 438.838783l215.498163 215.499624c6.272505 6.272505 6.272505 16.444333 0 22.716838l-215.499624 215.499623c-6.272505 6.272505-16.444333 6.272505-22.716838 0l-215.499623-215.499623c-6.272505-6.272505-6.272505-16.444333 0-22.718299l215.499623-215.498163c6.272505-6.272505 16.444333-6.272505 22.718299 0z m75.534399 227.675148h-103.460557v89.847979h17.501677v-7.195491h68.457203v7.195491h17.501677v-89.847979z m-136.13308-91.403327l-17.308902 4.861739c3.306392 7.195491 6.222851 14.585218 8.946535 22.169181h-25.671269v17.698834h42.784474c-8.168131 19.642653-23.725989 39.866554-46.869269 60.870319l5.640143 19.448418a381.851722 381.851722 0 0 0 20.031125-19.254182v75.262762h17.89161v-78.179221a172.079867 172.079867 0 0 1 15.169385 15.94779l9.919175-15.169386a175.647674 175.647674 0 0 0-24.892864-19.642654c9.917714-13.614038 17.113205-27.420852 21.780709-41.423362v-15.557858h-18.474318a229.991374 229.991374 0 0 0-8.946534-27.03238z m75.651233 139.827944v18.281542h-25.477033v-18.281542h25.477033z m42.98017 0v18.281542h-25.477032v-18.281542h25.477032z m-42.98017-33.060995v17.697373h-25.477033v-17.697373h25.477033z m42.98017 0v17.697373h-25.477032v-17.697373h25.477032z m8.750839-71.95491h-85.570408v45.312462h85.570408v-45.313922z m-17.308902 14.585218v16.140566h-50.952605v-16.140566h50.954065z m28.200717-41.229126H538.477421v16.334801h106.962645v-16.334801z" fill="#FFE400" p-id="5794"></path><path d="M564.063985 436.071287l-0.081784 0.045273c-1.299774 0.715606-2.519225 1.621067-3.620382 2.722223l-215.498163 215.499624c-6.273966 6.272505-6.273966 16.444333 0 22.716838l215.498163 215.499623c1.124524 1.123063 2.373183 2.044588 3.702166 2.766037-6.089953 3.304931-13.865231 2.381946-19.014673-2.767497L329.549689 677.055245c-6.272505-6.272505-6.272505-16.444333 0-22.718299l215.499623-215.498163c5.149442-5.149442 12.92472-6.072428 19.014673-2.767496z" fill="#FFA700" p-id="5795"></path><path d="M833.605002 575.718139m-38.283459 0a38.283458 38.283458 0 1 0 76.566917 0 38.283458 38.283458 0 1 0-76.566917 0Z" fill="#FFE400" p-id="5796"></path><path d="M807.004906 561.113936c0 21.142505 17.139493 38.281998 38.283459 38.281998 8.704105 0 16.727654-2.904776 23.159345-7.797184-6.032996 13.216804-19.365174 22.402848-34.842708 22.402847-21.143965 0-38.283458-17.140953-38.283459-38.283458 0-12.43986 5.932227-23.493782 15.122653-30.486274A38.134496 38.134496 0 0 0 807.004906 561.113936z" fill="#FFA700" p-id="5797"></path><path d="M328.485042 383.313602c69.863588-54.407959 143.906898-69.399174 220.717705-44.536978l2.32791 0.76526c0.470255 0.157725 1.431212 0.506766 2.910618 1.057345l17.548411 6.618625-14.14125 3.242133c-11.576752 2.655044-43.108687 4.781416-57.85017 3.44221l-0.822217-0.078862-0.357803-0.021907a34.573991 34.573991 0 0 0-2.197932-0.00292l-2.634599 0.073021c-1.394701 0.03359-2.180408 0.036511-2.932524 0l-1.900007-0.118294c-49.760902-2.942747-97.938708 13.86377-145.066472 50.72916l-3.147205 2.476873c-43.294161 33.91242-92.558519 59.731191-145.729503 77.243091l-2.101545 0.686398c-29.525318 9.584739-64.061338 17.117587-76.956849 17.415512l-0.76234 0.008763a13.143783 13.143783 0 0 1-13.143782-13.143783c0-7.128312 5.676654-12.932022 12.657463-13.136481l0.541815-0.008762 0.528673-0.03359c2.449125-0.201538 8.864751-1.14789 15.35924-2.32937l2.818611-0.525752 2.773339-0.544737c15.232184-3.052278 31.493964-7.324008 48.068274-12.705656 51.065057-16.57431 98.32718-41.194076 139.689205-73.583279l3.802934-2.98802z m-140.78744 84.907378c-16.894142 5.483878-33.484517 9.843233-49.070123 12.964151l-2.824453 0.55496-2.32791 0.436665-1.311458 0.238049c-6.761746 1.21507-13.243092 2.15558-15.9843 2.342514l-0.446889 0.024827-0.600233 0.014605a4.381261 4.381261 0 0 0 0.257034 8.753759l0.695161-0.008763c11.803117-0.290624 45.579718-7.658444 74.31933-16.986148l2.117609-0.6937c52.211487-17.200831 100.554321-42.542044 143.007279-75.794355l3.19394-2.511923c48.726924-38.108208 98.965383-55.628871 150.963649-52.548844l1.840129 0.113913 0.522831 0.013144c0.261415 0.00146 0.568104 0 0.943431-0.007302l3.899323-0.097848 0.902539-0.010223c0.83536 0 1.489629 0.020446 2.105927 0.073021l0.896698 0.084704c8.008945 0.73021 21.720832 0.338818 33.896355-0.598772l2.710541-0.219063c-70.698948-19.940579-138.681514-4.636835-203.521256 45.857198l-3.779568 2.971955c-42.197385 33.044931-90.379572 58.146635-142.405586 75.033476z" fill="#91000A" p-id="5798"></path><path d="M115.38927 497.931771c10.081282 0 43.443123-6.523698 76.36684-17.209593 51.269516-16.64149 101.361933-41.870251 146.481619-77.212423l1.711613-1.346507c48.880268-38.67193 99.083678-56.175068 151.020605-52.686124 2.251968 0.151884 6.535381-0.229286 8.793191 0 15.46147 1.577254 46.914543-0.229286 56.645323-2.460808a10.431782 10.431782 0 0 0-1.412226-1.063186c-1.543664-0.930288-3.766424-1.892705-4.852977-2.254889-76.26461-25.46681-149.571869-10.970677-218.966661 43.072176l-2.101545 1.650275c-43.809689 34.661616-92.679734 59.386532-142.7298 75.632248-17.326427 5.624079-33.747393 9.865139-48.560436 12.832714l-2.789403 0.547657-2.313305 0.433745c-8.178354 1.504233-15.109509 2.453506-17.053329 2.53529l-0.239509 0.004381a8.762522 8.762522 0 0 0 0 17.525044z" fill="#FFE400" p-id="5799"></path><path d="M745.375168 253.146339a13.143783 13.143783 0 0 1 6.32362 17.47831c-12.086439 25.791023-39.846108 50.092417-83.449878 73.473747-16.770007 8.988887-35.920498 17.863861-57.486525 26.642448a842.063756 842.063756 0 0 1-11.29051 4.502476c-4.708395 1.84013-22.014376 4.861739-35.638637 5.022385l-5.242909 0.021907c-14.475686 0.029208-18.880314-0.227826-24.708851-1.416608l-41.689159-8.78881h42.016293c0.965338 0 4.220615-0.841202 6.415626-1.553887l3.503549-1.177099c104.031582-35.159619 165.845332-71.556215 183.253542-106.813682l0.686398-1.422449a13.143783 13.143783 0 0 1 17.305981-5.968738z m-182.251694 118.362686c7.275814-0.03505 15.016042-0.83536 22.570796-2.146818l1.345047-0.240969c4.314082-0.791548 8.327317-1.724756 9.168519-2.01246l3.816078-1.498391a833.38886 833.38886 0 0 0 7.435-2.985099c21.292928-8.667595 40.167401-17.414052 56.649705-26.251055 42.095156-22.569336 68.51854-45.703854 79.655706-69.467814a4.381261 4.381261 0 1 0-7.934464-3.71823c-17.177464 36.652169-75.695046 72.628163-173.901011 107.286858l-2.98802 1.050043 4.182644-0.016065z" fill="#91000A" p-id="5800"></path><path d="M597.877097 371.162905a879.795176 879.795176 0 0 0 11.233553-4.479109c21.390777-8.708486 40.411291-17.517742 57.067384-26.448212 42.746503-22.918376 69.914702-46.632681 81.552792-71.47005a8.762522 8.762522 0 0 0-15.868927-7.43646c-17.40675 37.14287-80.673619 74.788125-189.540652 111.251899-1.026675 0.344659-5.1436 1.28517-6.980809 1.895626 6.698948 1.413687 10.734089 1.496931 27.804942 1.413687 17.069393-0.083244 33.481596-4.2396 34.731717-4.727381z" fill="#FFE400" p-id="5801"></path><path d="M77.107272 442.124729c25.980878 0 47.04452 21.062182 47.04452 47.04452 0 25.983798-21.062182 47.04598-47.04452 47.04598S30.061292 515.153047 30.061292 489.169249c0-25.980878 21.063642-47.04452 47.04598-47.04452z m0 17.525044C60.80314 459.649773 47.586336 472.866577 47.586336 489.167789c0 16.304133 13.216804 29.520936 29.520936 29.520936 16.302672 0 29.519476-13.216804 29.519477-29.520936 0-16.302672-13.216804-29.519476-29.519477-29.519476z" fill="#91000A" p-id="5802"></path><path d="M77.107272 489.169249m-38.283458 0a38.283458 38.283458 0 1 0 76.566917 0 38.283458 38.283458 0 1 0-76.566917 0Z" fill="#D8000F" p-id="5803"></path><path d="M50.507177 474.565046c0 21.143965 17.139493 38.283458 38.283458 38.283458 8.704105 0 16.727654-2.904776 23.159346-7.797184-6.032996 13.216804-19.365174 22.401387-34.842709 22.401387-21.143965 0-38.283458-17.139493-38.283458-38.283458 0-12.4384 5.932227-23.492321 15.122652-30.484814A38.134496 38.134496 0 0 0 50.507177 474.565046z" fill="#C40714" p-id="5804"></path></svg>