<svg focusable="false" xmlns="http://www.w3.org/2000/svg" width="24" height="24" fill="currentColor" viewBox="0 0 1024 1024"><path d="M149.333333 420.266667a42.666667 42.666667 0 0 1 13.994667 2.346666l3.328 1.322667 183.744 81.664h323.178667l183.765333-81.664a42.666667 42.666667 0 0 1 13.76-3.52L874.666667 420.266667h128v85.333333h-53.333334v21.333333l-0.128 3.370667-21.930666 277.333333a42.666667 42.666667 0 0 1-39.232 39.168l-3.306667 0.128H709.333333a42.666667 42.666667 0 0 1-31.488-13.866666l-2.304-2.752-52.992-68.714667H401.429333l-52.970666 68.714667a42.666667 42.666667 0 0 1-30.208 16.469333l-3.584 0.149333H139.264a42.666667 42.666667 0 0 1-42.154667-36.010666l-0.384-3.285334-21.930666-277.333333L74.666667 526.933333v-21.333333H21.333333v-85.333333h128z m714.005334 94.357333l-163.349334 72.64a42.666667 42.666667 0 0 1-13.76 3.52L682.666667 590.933333H341.333333a42.666667 42.666667 0 0 1-13.994666-2.346666l-3.328-1.322667-163.370667-72.64-0.64 1.258667v9.578666L178.666667 761.6h114.986666l52.992-68.714667a42.666667 42.666667 0 0 1 30.208-16.469333l3.584-0.149333h263.125334a42.666667 42.666667 0 0 1 31.466666 13.866666l2.325334 2.752 52.970666 68.714667h114.986667l18.688-236.501333v-9.173334l-0.661333-1.301333zM723.818667 164.266667a85.333333 85.333333 0 0 1 68.117333 33.92l2.901333 4.074666L878.506667 356.266667h-96.725334l-57.941333-106.666667H300.16l-57.962667 106.666667H145.493333l83.669334-154.005334a85.333333 85.333333 0 0 1 65.984-37.845333l5.013333-0.149333h423.68z"></path></svg>