<svg focusable="false" xmlns="http://www.w3.org/2000/svg" width="20" height="20" fill="currentColor" viewBox="0 0 1024 1024"><path d="M531.626667 111.445333l3.285333 1.898667 352 224a42.666667 42.666667 0 0 1 19.605333 32.384l0.149334 3.626667v481.301333h-85.333334l-0.021333-457.92L512 199.893333 202.645333 396.8v413.866667L732.010667 810.666667v85.333333H160a42.666667 42.666667 0 0 1-42.56-39.466667L117.333333 853.333333V373.333333a42.666667 42.666667 0 0 1 16.789334-33.92l2.986666-2.069333 352-224a42.666667 42.666667 0 0 1 42.517334-1.92z m102.144 453.12v85.333334h-256v-85.333334h256z"></path></svg>