<svg focusable="false" xmlns="http://www.w3.org/2000/svg" width="24" height="24" fill="currentColor" viewBox="0 0 1024 1024"><path d="M704 618.666667c115.84 0 210.090667 92.309333 213.248 207.36L917.333333 832v64h-85.333333v-64a128 128 0 0 0-123.2-127.914667L704 704H320a128 128 0 0 0-127.914667 123.2L192 832v64H106.666667v-64c0-115.84 92.309333-210.090667 207.36-213.248L320 618.666667h384z m-42.666667 192v85.333333H362.666667v-85.333333h298.666666z m21.333334-682.666667a42.666667 42.666667 0 0 1 42.56 39.466667L725.333333 170.666667v170.666666c0 117.824-95.509333 213.333333-213.333333 213.333334s-213.333333-95.509333-213.333333-213.333334c0-115.84 92.309333-210.090667 207.36-213.248L512 128h170.666667z m-42.666667 85.333333h-128a128 128 0 1 0 127.914667 132.8L640 341.333333v-128z"></path></svg>