<svg focusable="false" xmlns="http://www.w3.org/2000/svg" width="24" height="24" fill="currentColor" viewBox="0 0 1024 1024"><path d="M512 85.333333c191.04 0 352.768 125.568 407.146667 298.666667h-90.624C777.898667 258.944 655.253333 170.666667 512 170.666667 323.477333 170.666667 170.666667 323.477333 170.666667 512s152.810667 341.333333 341.333333 341.333333c143.253333 0 265.877333-88.234667 316.522667-213.333333h90.624C864.746667 813.12 703.04 938.666667 512 938.666667 276.352 938.666667 85.333333 747.648 85.333333 512S276.352 85.333333 512 85.333333z m0 256a170.666667 170.666667 0 1 1 0 341.333334 170.666667 170.666667 0 0 1 0-341.333334z m0 85.333334a85.333333 85.333333 0 1 0 0 170.666666 85.333333 85.333333 0 0 0 0-170.666666z m377.365333 36.672a50.666667 50.666667 0 1 1 0 101.333333 50.666667 50.666667 0 0 1 0-101.333333z"></path></svg>