<svg focusable="false" xmlns="http://www.w3.org/2000/svg" width="24" height="24" fill="currentColor" viewBox="0 0 1024 1024"><path d="M699.797333 170.666667a64 64 0 0 1 53.973334 29.653333l127.36 200.149333h-101.12L688.064 256H336.234667L170.730667 514.410667 170.666667 768h105.578666l40.554667-80.512a42.666667 42.666667 0 0 1 34.688-23.36l3.413333-0.128 128.512-0.021333v85.354666h-102.229333l-40.533333 80.512a42.666667 42.666667 0 0 1-34.666667 23.36l-3.434667 0.128H128a42.666667 42.666667 0 0 1-42.666667-42.666666l0.085334-308.757334a42.666667 42.666667 0 0 1 6.741333-22.997333l178.517333-278.762667A64 64 0 0 1 324.565333 170.666667z"></path><path d="M644.565333 378.965333l73.813334 42.794667-46.122667 79.552L938.666667 501.333333v85.333334H598.186667c-31.786667 0-52.053333-33.365333-38.378667-61.290667l1.493333-2.773333 83.264-143.637334zM848.426667 877.802667l-74.453334-41.706667 48.277334-86.186667H555.392v-85.333333h339.648c31.509333 0 51.776 32.768 38.698667 60.650667l-1.472 2.858666-83.84 149.717334z"></path></svg>