<?xml version="1.0" standalone="no"?><!DOCTYPE svg PUBLIC "-//W3C//DTD SVG 1.1//EN" "http://www.w3.org/Graphics/SVG/1.1/DTD/svg11.dtd"><svg class="icon" width="200px" height="200.00px" viewBox="0 0 1024 1024" version="1.1" xmlns="http://www.w3.org/2000/svg"><path d="M1000.4 784.9c-39.2-32.5-60.3-54.6-67.7-64.8 23.6-38.9 36.1-82.8 36.1-127.7 0-65.3-26.3-127.9-74.1-176.3-11.8-11.9-24.9-22.9-38.9-32.7-9.9-7-23.6-4.6-30.6 5.4-7 9.9-4.6 23.6 5.4 30.6 11.8 8.2 22.9 17.5 32.8 27.6 39.6 40.1 61.4 91.7 61.4 145.4 0 39.3-11.8 77.9-34 111.6-7.5 11.4-5.6 25.3 5.8 41.3 5.4 7.8 13.4 16.8 24.3 27.6 0.7 0.6 1.4 1.3 2.1 2-6.8-0.9-13.7-1.7-20.5-2.5-64.2-7.4-76.2-3.8-84.5 1.2-40.2 24.6-87.3 37.6-136.1 37.6-44.8 0-88.7-11.1-126.7-32.1-10.9-6-21.4-12.9-31.1-20.4-9.7-7.4-23.5-5.6-30.9 4-7.4 9.7-5.6 23.5 4 30.9 11.5 8.8 23.9 16.9 36.7 24 44.6 24.6 95.7 37.6 148 37.6 56.1 0 110.3-14.7 156.9-42.8 12.1-1.7 60.6 2.3 142.2 15.3 10.9 1.7 21.6-4 26.1-14 4.5-9.9 1.8-21.8-6.7-28.8z" fill="#070002" /><path d="M767.6 528c19.2-41.3 29-85.2 29-130.5s-9.8-89.2-29-130.5c-18.5-39.7-45-75.4-78.6-106-68.8-62.6-160.1-97-257.1-97s-188.3 34.5-257.1 97c-33.7 30.6-60.1 66.2-78.6 106-19.2 41.3-29 85.2-29 130.5 0 58.2 16.5 115.2 47.9 165.4-7.6 12.3-35.3 42.3-91.2 88.6-8.7 7.2-11.5 19.4-6.9 29.7s15.7 16.2 26.8 14.4c21-3.4 62.3-9.7 102.4-14.5 62.9-7.5 80.5-6 84.8-5.2 59.7 36 129 55 200.8 55 97 0 188.3-34.4 257.2-96.9 33.7-30.6 60.1-66.2 78.6-106z m-108.4 73.5C598.5 656.6 517.7 687 431.7 687c-64.3 0-126.3-17.2-179.4-49.6-5.3-3.3-12.6-6.1-33.5-6.1-15.2 0-37.6 1.5-71.9 5.5-15.5 1.8-31.2 3.8-46.1 5.9 5.8-5.4 11.5-10.9 17-16.3 13.9-13.7 23.9-25.1 30.8-34.8 4.8-6.9 19.6-27.6 7.4-46.1-29.4-44.6-45-95.8-45-148 0-76.9 33.1-149.4 93.2-204 60.7-55.1 141.5-85.5 227.5-85.5 86.1 0 166.8 30.4 227.5 85.5 60.1 54.6 93.2 127.1 93.2 204s-33.1 149.4-93.2 204z" fill="#070002" /><path d="M266.1 397.4m-33.5 0a33.5 33.5 0 1 0 67 0 33.5 33.5 0 1 0-67 0Z" fill="#070002" /><path d="M433.8 397.4m-33.5 0a33.5 33.5 0 1 0 67 0 33.5 33.5 0 1 0-67 0Z" fill="#070002" /><path d="M601.4 397.4m-33.5 0a33.5 33.5 0 1 0 67 0 33.5 33.5 0 1 0-67 0Z" fill="#070002" /></svg>