<?xml version="1.0" standalone="no"?><!DOCTYPE svg PUBLIC "-//W3C//DTD SVG 1.1//EN" "http://www.w3.org/Graphics/SVG/1.1/DTD/svg11.dtd"><svg class="icon" width="200px" height="200.00px" viewBox="0 0 1024 1024" version="1.1" xmlns="http://www.w3.org/2000/svg"><path d="M896 768H384a128 128 0 0 1-128-128V128A128 128 0 0 1 384 0h512a128 128 0 0 1 128 128v512a128 128 0 0 1-128 128z m64-640a64 64 0 0 0-64-64H384a64 64 0 0 0-64 64v512a64 64 0 0 0 64 64h512a64 64 0 0 0 64-64V128zM64 384v512a64 64 0 0 0 64 64h512a64 64 0 0 0 64-64v-64h64v64a128 128 0 0 1-128 128H128a128 128 0 0 1-128-128V384a128 128 0 0 1 128-128h64v64h-64a64 64 0 0 0-64 64z" /></svg>