<?xml version="1.0" standalone="no"?><!DOCTYPE svg PUBLIC "-//W3C//DTD SVG 1.1//EN" "http://www.w3.org/Graphics/SVG/1.1/DTD/svg11.dtd"><svg class="icon" width="200px" height="200.00px" viewBox="0 0 1024 1024" version="1.1" xmlns="http://www.w3.org/2000/svg"><path d="M512 957c-24.8 0-49.2-5.8-69.2-17l-195.8-113c-81.2-54.6-86.6-64.6-86.6-150.2V471.4c0-85.6 5.4-95.6 84.8-149l197.8-114.2c39.4-22.8 98.6-22.8 137.8 0l195.8 113c81.2 54.6 86.6 64.6 86.6 150.2v205.4c0 85.6-5.4 95.6-84.8 149L580.8 940c-19.6 11.6-44.4 17-68.8 17z m0-703.8c-14 0-28.2 2.8-38 8.6l-195.8 113c-55.4 37.6-55.4 37.6-55.4 96.4v205.4c0 58.8 0 58.8 57.6 97.6l194.2 111.8c19.8 11.6 55.8 11.6 75.8 0l195.8-113c55.4-37.6 55.4-37.6 55.4-96.4V471.4c0-58.8 0-58.8-57.6-97.6L549.6 262c-9.4-5.8-23.6-8.8-37.6-8.8zM739.6 362.2c-17 0-31-14-31-31v-108.8c0-65.4-27.8-93.2-93.2-93.2H408.6c-65.4 0-93.2 27.8-93.2 93.2v106c0 17-14 31-31 31s-31-13.6-31-31v-106c0-100.2 55-155.2 155.2-155.2h207c100.2 0 155.2 55 155.2 155.2v108.8c0 16.8-14.2 31-31.2 31zM579.4 745c-8.6 0-17.8-1.6-27-5.4L512 724l-40.6 16.2c-22 8.6-44.2 6.6-60.8-5.4-16.6-12-25.2-32.8-24-56.2l2.4-43.4-27.8-33.6c-15-18.6-19.8-40.2-13.2-60 6.2-19.4 23.2-34.4 46-40.2l42.2-10.8 23.6-36.8c25.2-39.8 79.4-39.8 104.8 0l23.6 36.8 42.2 10.8c22.8 5.8 39.8 20.6 46 40.2 6.2 19.4 1.2 41.4-13.6 59.6l-27.8 33.6 2.4 43.4c1.2 23.6-7.4 43.8-24 56.2-10 7-21.6 10.6-34 10.6z m-170-183.4l27.8 33.6c9.6 11.2 15 29 14 43.4l-2.4 43.4 40.6-16.2c13.6-5.4 31.8-5.4 45.6 0l40.6 16.2-2.4-43.4c-0.8-14.4 4.6-31.8 14-43.4l27.8-33.6-42.2-10.8c-14-3.8-29-14.4-36.8-26.4L512.4 488l-23.6 36.4c-7.8 12.4-22.8 23.2-36.8 27l-42.6 10.2z" /></svg>