<?xml version="1.0" standalone="no"?><!DOCTYPE svg PUBLIC "-//W3C//DTD SVG 1.1//EN" "http://www.w3.org/Graphics/SVG/1.1/DTD/svg11.dtd"><svg class="icon" width="200px" height="200.00px" viewBox="0 0 1024 1024" version="1.1" xmlns="http://www.w3.org/2000/svg"><path d="M443.434667 549.973333c-50.346667 0-99.797333-19.626667-136.490667-56.32a193.408 193.408 0 0 1-44.288-203.349333 25.258667 25.258667 0 0 1 14.933333-14.933333 193.450667 193.450667 0 0 1 203.349334 44.330666c12.288 12.288 22.698667 26.026667 31.061333 40.789334a191.146667 191.146667 0 0 1 31.061333-40.789334 193.450667 193.450667 0 0 1 203.349334-44.373333 25.258667 25.258667 0 0 1 14.933333 14.933333 193.365333 193.365333 0 0 1-44.288 203.392 193.066667 193.066667 0 0 1-179.754667 51.413334v123.008h59.008a25.301333 25.301333 0 0 1 0 50.602666h-83.626666a36.565333 36.565333 0 0 1-1.365334 0h-83.626666a25.301333 25.301333 0 0 1 0-50.602666h59.008v-123.008a192.810667 192.810667 0 0 1-43.264 4.906666zM306.432 319.146667c-13.653333 49.066667 0 102.442667 36.266667 138.752 36.352 36.266667 89.728 49.962667 138.752 36.266666 13.653333-49.066667 0-102.4-36.266667-138.709333a142.592 142.592 0 0 0-138.752-36.266667z m236.117333 175.061333c49.066667 13.653333 102.442667 0 138.709334-36.266667 36.309333-36.352 49.92-89.685333 36.309333-138.794666-49.066667-13.653333-102.4 0-138.752 36.309333a142.677333 142.677333 0 0 0-36.266667 138.752zM512 982.058667l-10.410667-4.010667C166.741333 848.597333 128 679.424 128 563.456V120.448l29.866667 1.024C390.698667 129.408 489.813333 24.362667 490.666667 23.338667L512 0l21.333333 23.338667c0.768 0.853333 94.72 98.56 307.968 98.56 8.106667 0 16.384-0.128 24.789334-0.426667L896 120.448v443.008c0 115.968-38.698667 285.141333-373.589333 414.592L512 982.058667zM185.813333 179.669333v383.786667c0 62.378667 0 227.072 326.186667 356.608 326.186667-129.536 326.186667-294.229333 326.186667-356.608V179.626667C657.578667 178.986667 553.642667 114.773333 512 81.536c-41.685333 33.152-145.621333 97.408-326.186667 98.133333z" /></svg>