<?xml version="1.0" standalone="no"?><!DOCTYPE svg PUBLIC "-//W3C//DTD SVG 1.1//EN" "http://www.w3.org/Graphics/SVG/1.1/DTD/svg11.dtd"><svg class="icon" width="200px" height="200.00px" viewBox="0 0 1024 1024" version="1.1" xmlns="http://www.w3.org/2000/svg"><path d="M508.2 865.9c-130.4 0-249-72.7-309.5-189.8-4.4-8.5-1.1-19 7.5-23.4 8.5-4.4 19-1.1 23.4 7.5 54.5 105.5 161.3 171 278.6 171 94 0 182.4-42.2 242.4-115.8 5-6.2 15-20.9 16.5-26.2 0.5-9.1 8.1-16.4 17.3-16.4 9.6 0 17.4 7.8 17.4 17.4 0 16.6-20.3 42.2-24.3 47.1-66.6 81.8-164.7 128.6-269.3 128.6z m258.9-175.6z m0.1-1.4z m72.7-159c-9.6 0-17.4-7.8-17.4-17.4 0-175.7-141-318.7-314.3-318.7-110.8 0-214.7 60.2-271 157.1-4.8 8.3-15.5 11.1-23.8 6.3s-11.1-15.5-6.3-23.8C269.6 225.8 385 159 508.2 159c192.5 0 349.1 158.5 349.1 353.4 0 9.7-7.8 17.5-17.4 17.5z" fill="#383838" /><path d="M256.9 580.6C285.2 694.5 389.7 779 514.2 779c71.1 0 135.7-27.6 183.3-72.5-160.8-4.4-311.1-49.8-440.6-125.9zM251.8 462C277.5 338.6 385.1 246 514 246c148 0 268 122.2 268 272.9 0 30-4.8 58.9-13.6 85.9-185.2-11-360-61.3-516.6-142.8z" fill="#50E3C2" /><path d="M538.6 477.7m-34.8 0a34.8 34.8 0 1 0 69.6 0 34.8 34.8 0 1 0-69.6 0Z" fill="#FFFFFF" /><path d="M509.7 726.9m-17.4 0a17.4 17.4 0 1 0 34.8 0 17.4 17.4 0 1 0-34.8 0Z" fill="#FFFFFF" /><path d="M411.2 373.4m-46.4 0a46.4 46.4 0 1 0 92.8 0 46.4 46.4 0 1 0-92.8 0Z" fill="#FFFFFF" /><path d="M735.6 483.5c-6.9 0-13.4-4.1-16.1-10.9-13.1-32.8-32.2-62.5-56.8-88.2-6.6-6.9-6.4-17.9 0.5-24.6 6.9-6.6 17.9-6.4 24.6 0.5 27.7 28.9 49.2 62.3 63.9 99.3 3.6 8.9-0.8 19-9.7 22.6-2 0.9-4.2 1.3-6.4 1.3zM634 354c-3.5 0-7-1.1-10.1-3.2-4.4-3.1-8.8-6.1-13.4-9-8.1-5.1-10.5-15.9-5.4-24s15.9-10.5 24-5.4c5.1 3.2 10.1 6.6 15.1 10.1 7.8 5.6 9.6 16.4 4 24.2-3.5 4.8-8.8 7.3-14.2 7.3z" fill="#FFFFFF" /><path d="M818.1 684.1c-109.3 0-254.1-34.6-327.4-54.3C272 571.3 98.3 482 68.2 412.7c-3.4-7.9-6.3-27.8 7.2-46.9 21-29.5 69.6-41.6 144.7-36.1 9.6 0.7 16.8 9 16.1 18.6s-9.1 16.7-18.6 16.1c-81.9-6.1-106.1 12.1-112.7 20.2-6.3 7.7-4.5 14.8-4.5 14.9 21.2 48.9 168.6 135 399.3 196.8C703.9 651 866.2 664.6 913.1 631c7.4-5.3 11-11.4 11.5-19 0.6-9.6 8.6-16.8 18.4-16.2 9.6 0.6 16.9 8.9 16.2 18.4-1.2 18.1-10.1 33.7-25.9 45.1-25.1 18-66.6 24.8-115.2 24.8z" fill="#383838" /></svg>