<?xml version="1.0" standalone="no"?><!DOCTYPE svg PUBLIC "-//W3C//DTD SVG 1.1//EN" "http://www.w3.org/Graphics/SVG/1.1/DTD/svg11.dtd"><svg class="icon" width="200px" height="200.00px" viewBox="0 0 1024 1024" version="1.1" xmlns="http://www.w3.org/2000/svg"><path d="M679.073684 749.136842H339.536842c-80.842105 5.389474-150.905263-59.284211-156.294737-140.126316C177.852632 533.557895 242.526316 463.494737 323.368421 458.105263 323.368421 361.094737 398.821053 280.252632 501.221053 269.473684c102.4-5.389474 188.631579 64.673684 204.8 161.684211 86.231579 10.778947 145.515789 86.231579 140.126315 172.463158-10.778947 86.231579-80.842105 150.905263-167.073684 145.515789z m-323.368421-48.505263h323.368421c37.726316 0 75.452632-21.557895 97.010527-53.894737 21.557895-32.336842 21.557895-75.452632 0-107.789474s-53.894737-53.894737-97.010527-53.894736c-5.389474 0-16.168421-5.389474-21.557895-5.389474-5.389474-5.389474-10.778947-10.778947-10.778947-16.168421 5.389474-80.842105-53.894737-140.126316-129.347368-140.126316S377.263158 382.652632 377.263158 458.105263v5.389474c64.673684 16.168421 107.789474 75.452632 107.789474 140.126316 0 10.778947-5.389474 16.168421-16.168421 21.557894-10.778947 5.389474-16.168421 5.389474-26.947369 0-5.389474 0-10.778947-10.778947-10.778947-21.557894 0-48.505263-43.115789-91.621053-97.010527-91.621053s-97.010526 43.115789-97.010526 91.621053c0 53.894737 43.115789 91.621053 97.010526 91.621052h10.778948s10.778947 0 10.778947 5.389474zM512 53.894737C765.305263 53.894737 970.105263 258.694737 970.105263 512S765.305263 970.105263 512 970.105263 53.894737 765.305263 53.894737 512 258.694737 53.894737 512 53.894737m0-53.894737C231.747368 0 0 231.747368 0 512S231.747368 1024 512 1024 1024 792.252632 1024 512 792.252632 0 512 0z" /></svg>