<?xml version="1.0" standalone="no"?><!DOCTYPE svg PUBLIC "-//W3C//DTD SVG 1.1//EN" "http://www.w3.org/Graphics/SVG/1.1/DTD/svg11.dtd"><svg class="icon" width="200px" height="200.00px" viewBox="0 0 1024 1024" version="1.1" xmlns="http://www.w3.org/2000/svg"><path d="M601.971875 238.390625H423.153125c-19.74375 0-35.75625-15.99375-35.75625-35.75625s16.0125-35.75625 35.75625-35.75625h178.81875c19.7625 0 35.75625 15.99375 35.75625 35.75625s-15.99375 35.75625-35.75625 35.75625zM767.20625 936.51875h-508.96875c-35.371875 0-64.1625-28.771875-64.1625-64.14375V520.878125c0-19.7625 16.0125-35.75625 35.75625-35.75625s35.75625 15.99375 35.75625 35.75625v344.11875H759.875V520.878125c0-19.7625 15.99375-35.75625 35.75625-35.75625s35.75625 15.99375 35.75625 35.75625V872.375c0 35.371875-28.809375 64.14375-64.18125 64.14375z" fill="#050500" /><path d="M795.63125 556.634375c-10.021875 0-19.978125-4.190625-27.065625-12.39375-12.91875-14.94375-11.240625-37.5 3.703125-50.41875l122.98125-106.21875-193.2375-223.940625-76.715625 66.065625c-14.94375 12.778125-37.575 11.2125-50.41875-3.76875-12.88125-14.98125-11.2125-37.5375 3.76875-50.41875l83.596875-71.971875c12.815625-10.96875 29.15625-16.378125 45.7125-14.98125 16.51875 1.29375 31.528125 8.90625 42.253125 21.440625L955.315625 347.75c10.828125 12.253125 16.275 28.3875 15.084375 45.1125-1.153125 16.44375-8.625 31.565625-21.05625 42.496875L818.99375 547.94375c-6.740625 5.83125-15.046875 8.690625-23.3625 8.690625z m105.665625-162.01875c0.065625 0.065625 0.103125 0.103125 0.140625 0.178125l-0.140625-0.178125zM695.9375 156.6125c0 0.0375 0.0375 0.0375 0.0375 0.065625l-0.0375-0.065625zM229.8125 556.634375c-8.278125 0-16.603125-2.859375-23.3625-8.690625L76.38125 435.6125c-12.675-11.175-20.146875-26.259375-21.3375-42.740625-1.190625-16.725 4.246875-32.821875 15.290625-45.39375L275.375 109.8875c10.565625-12.39375 25.55625-20.00625 42.09375-21.3 16.4625-1.5375 32.896875 3.946875 45.675 14.90625l83.38125 72.075c14.94375 12.91875 16.584375 35.5125 3.665625 50.45625-12.9375 14.90625-35.5125 16.51875-50.41875 3.665625l-76.36875-66-193.21875 223.903125 123.01875 106.21875c14.94375 12.91875 16.584375 35.475 3.684375 50.41875-7.06875 8.2125-17.034375 12.403125-27.075 12.403125zM124.334375 394.371875l-0.103125 0.103125 0.103125-0.103125z m205.3125-237.9l-0.065625 0.065625c0.009375-0.0375 0.028125-0.0375 0.065625-0.065625zM785.1875 756.6125H240.2375c-19.74375 0-35.75625-15.99375-35.75625-35.75625 0-19.7625 16.0125-35.75625 35.75625-35.75625H785.1875c19.7625 0 35.75625 15.99375 35.75625 35.75625 0 19.7625-15.984375 35.75625-35.75625 35.75625z" fill="#050500" /><path d="M735.603125 369.959375H568.559375c-19.7625 0-35.75625-15.99375-35.75625-35.75625s15.99375-35.75625 35.75625-35.75625h167.053125c19.7625 0 35.75625 15.99375 35.75625 35.75625s-15.99375 35.75625-35.765625 35.75625z" fill="#1D75B3" /></svg>